<?xml version="1.0" encoding="utf-8"?>
<!-- Generator: Adobe Illustrator 28.3.0, SVG Export Plug-In . SVG Version: 6.00 Build 0)  -->
<svg version="1.1" id="Layer_1" xmlns="http://www.w3.org/2000/svg" xmlns:xlink="http://www.w3.org/1999/xlink" x="0px" y="0px"
	 viewBox="0 0 80.4 80.4" style="enable-background:new 0 0 80.4 80.4;" xml:space="preserve">
<style type="text/css">
	.st0{fill:#73263B;}
	.st1{fill:#72263B;}
</style>
<path class="st0" d="M71.2,72.2H56.8v-0.8h14.4c0.8,0,1.5-0.7,1.5-1.5V7.1c0-0.8-0.7-1.5-1.5-1.5H8.4c-0.8,0-1.5,0.7-1.5,1.5v62.8
	c0,0.8,0.7,1.5,1.5,1.5h13.5v0.8H8.4c-1.3,0-2.3-1-2.3-2.3V7.1c0-1.3,1-2.3,2.3-2.3h62.8c1.3,0,2.3,1,2.3,2.3v62.8
	C73.5,71.1,72.5,72.2,71.2,72.2z"/>
<g>
	<path class="st1" d="M24.5,58.9C24.4,58.9,24.4,58.9,24.5,58.9c-0.1-0.1-0.1-0.1-0.1-0.1c0,0,0-0.1-0.1-0.1c0,0,0-0.1-0.1-0.1
		c0,0,0,0,0-0.1c0-0.1,0-0.1,0-0.1c0.1-0.1,0.2-0.1,0.3-0.2c0.2-0.1,0.4-0.3,0.5-0.4c1.2-1,1.9-2.3,2.2-4c0.2-1.2,0.3-2.4,0.3-3.8
		c0-0.8,0-1.1,0-1.6c0-0.2,0-0.4,0-0.6c0,0,0,0,0-0.1c0-0.1,0-0.1,0-0.2c0-0.1-0.1-0.2-0.2-0.2c-0.1,0-0.2,0-0.2,0
		c-0.7,0-2.4-0.3-2.9-0.4c-3.2-0.7-5.1-1.8-7.3-4c-2-2-3.1-4.4-3.5-7.6c-0.3-2.5-0.1-4.9,0.6-7.2c0.8-2.3,2.1-4.4,3.9-6
		c1.9-1.7,4.1-2.7,7.1-3.1c0.3,0,0.6-0.1,1-0.1c0.5,0,1,0,1.4,0.1l0,0c0.5,0,1.1,0.6,1.2,1c0.1,0.5-0.1,1-0.5,1.3
		c-0.2,0.1-0.4,0.2-0.7,0.2c-0.3,0-0.6-0.1-0.8-0.3c-0.4-0.3-0.5-1-0.2-1.4c0,0,0.1-0.1,0.1-0.1c0,0,0,0,0,0
		c-2.5,0-7.8,1.3-10.4,6.2c-2.3,4.4-2.1,10.2,0.5,14.4c3,3.9,6,5.5,10.9,5.7l0,0c0,0,0,0,0,0c0-2.9,0-5.7,0-8.6c0-2.9,0-5.8,0-8.7
		c0-1.8-0.9-2.7-2.7-2.7c0,0-0.1,0-0.1,0c0,0,0,0-0.1,0c-0.1,0-0.1-0.1-0.1-0.1v-0.4c0-0.1,0.1-0.1,0.1-0.1h8.5
		c0.1,0,0.1,0.1,0.1,0.1v0.4c0,0.1-0.1,0.1-0.1,0.1c0,0-0.2,0-0.2,0c0,0-0.1,0-0.1,0c-1.5,0-2.5,1-2.5,2.4c0,2.4,0,4.9,0,7.3
		c0,1,0,1.9,0,2.9c0,0,0,0,0,0l4.4,0c1.8,0,3.9,0,6,0c0.2,0,0.3,0,0.4-0.2c0,0,0.1-0.1,0.1-0.1c0.3-0.4,0.6-0.7,0.9-1.1
		c0.9-1.1,1.9-2.3,2.6-3.6c0.1-0.2,0.2-0.4,0.3-0.5c0.1-0.2,0.2-0.3,0.2-0.3c0-1.2,0-2.2,0-3.1c0-1.8,0.1-3.2,0.5-4.5
		c0.3-1.2,0.9-2.3,1.7-3.1c0.8-0.8,1.8-1.3,3.1-1.7c0,0,0.1,0,0.1,0c0.1,0,0.1,0,0.2-0.1c0.1,0,0.2-0.1,0.3-0.1
		c0.2,0,0.4,0.2,0.4,0.5c0,0.1,0,0.1-0.1,0.1c-1.1,0.5-1.9,1.4-2.5,2.6c-0.4,0.9-0.7,1.8-0.8,3c-0.1,1-0.1,2-0.1,3
		c0,3.7,0,7.5,0,11.1c0,3,0,6.2,0,9.3c0,1.1,0.4,1.9,1.4,2.3c0.3,0.1,0.6,0.2,1,0.2c0.2,0,0.3,0.1,0.5,0.1c0.1,0,0.1,0.1,0.1,0.1
		v0.3c0,0.1-0.1,0.1-0.1,0.1h-8.5c-0.1,0-0.1-0.1-0.1-0.1v-0.3c0-0.1,0-0.1,0.1-0.1c0.1,0,0.3,0,0.4-0.1c0.3,0,0.6-0.1,0.8-0.1
		c1-0.3,1.7-1.2,1.7-2.1c0-2.5,0-5,0-7.4c0-0.9,0-1.8,0-2.7c0,0,0,0,0,0H45c-0.4,0-0.7,0-1,0c-0.3,0-0.6,0-0.8,0c-0.7,0-1.2,0-1.8,0
		c-0.2,0-0.3,0.2-0.5,0.3l0,0c-0.1,0.1-0.3,0.3-0.4,0.4c-1.1,1.2-1.3,1.4-3.6,3.2c-1.4,1.1-4.4,2.9-6.3,3.3c-0.1,0-0.2,0.2-0.1,0.7
		c0,1.4,0,1.8,0,3.3c0,1.5-0.3,2.8-0.8,4c-0.6,1.5-1.8,2.6-3.4,3.2c-0.4,0.1-0.7,0.2-1.1,0.4C24.8,58.8,24.7,58.9,24.5,58.9
		C24.5,58.9,24.5,58.9,24.5,58.9z M30.4,45.7C30.4,45.7,30.4,45.7,30.4,45.7c0.2,0,0.5,0,0.5-0.1c1.4-0.4,2-0.8,3.3-1.5
		c0.1-0.1,0.2-0.1,0.4-0.2c1.3-0.7,2-1.2,3.3-2.2c0.8-0.6,1.5-1.3,1.9-1.7c0,0,0,0,0,0l-9.3,0c0,1,0,1.9,0,2.7c0,0.8,0,1.6,0,2.5
		c0,0,0,0,0,0.1C30.4,45.5,30.4,45.7,30.4,45.7z M45.3,38.5v-0.3c0-0.8,0-1.7,0-2.5c0-0.5,0-1.1,0-1.6c-0.7,1.3-1.3,2.1-2,3.1
		c-0.2,0.2-0.4,0.5-0.6,0.8c0,0-0.1,0.1-0.2,0.2c-0.1,0.1-0.2,0.2-0.2,0.3H45.3z"/>
	<path class="st1" d="M24.5,58.8c-0.1-0.1-0.1-0.1-0.1-0.2c0-0.1-0.1-0.1-0.1-0.2c0.3-0.2,0.6-0.4,0.8-0.6c1.3-1,2-2.4,2.3-4
		c0.2-1.2,0.3-2.5,0.3-3.8c0-1.1,0-1.2,0-2.2c0,0,0-0.2,0-0.3c0-0.2-0.1-0.3-0.3-0.3c-0.1,0-0.2,0-0.2,0c-0.7,0-2.4-0.3-2.9-0.4
		c-3-0.7-4.9-1.6-7.2-4c-2.1-2.1-3.1-4.6-3.4-7.5c-0.6-4.9,0.8-9.7,4.5-13.1c2-1.8,4.4-2.7,7.1-3.1c0.7-0.1,1.7-0.1,2.4,0
		c0.4,0,1,0.5,1.1,0.9c0.1,0.5-0.1,0.9-0.5,1.2c-0.5,0.3-0.9,0.2-1.3-0.1c-0.3-0.3-0.4-0.9-0.2-1.3c0.1-0.1,0.1-0.2,0.2-0.3
		c-3-0.1-8.2,1.5-10.7,6.2c-2.5,4.7-2,10.6,0.5,14.5c3.1,4.1,6.2,5.6,11,5.7c0.1,0,0.1-0.1,0.2-0.1c0,0,0,0,0,0c0-5.8,0-11.5,0-17.3
		c0-1.8-0.9-2.8-2.8-2.8c-0.1,0-0.1,0-0.2,0v-0.4h8.5v0.4c-0.1,0-0.3,0-0.4,0c-1.5,0-2.6,1-2.6,2.6c0,3.4,0,6.8,0,10.2
		c0,0,0,0.1,0,0.2c0.1,0,0.2,0,0.4,0c3.4,0,6.8,0,10.1,0c0.3,0,0.4-0.1,0.5-0.3c1.2-1.5,2.5-3,3.6-4.8c0.3-0.5,0.4-0.8,0.5-0.9
		c0,0,0.1,0.2,0.1,0.2c-0.1,0.3,0,0.6-0.2,0.8c-0.9,1.8-1.7,2.7-2.7,4.1c0,0-0.5,0.6-0.5,0.7h3.4c0-0.1,0-0.3,0-0.4
		c0-2.9,0-5.8,0-8.6c0-1.5,0.1-3,0.5-4.5c0.6-2.5,2.3-4,4.7-4.7c0.1,0,0.2,0,0.3-0.1c0.3-0.1,0.5,0,0.5,0.3
		c-1.1,0.6-1.9,1.5-2.5,2.7c-0.5,1-0.7,2-0.8,3.1c-0.1,1-0.1,2-0.1,3c0,6.8,0,13.6,0,20.4c0,1.1,0.4,2,1.4,2.4
		c0.5,0.2,1,0.2,1.5,0.3v0.3h-8.5v-0.3c0.4-0.1,0.9-0.1,1.2-0.2c1-0.3,1.7-1.2,1.7-2.3c0-3.4,0-6.7,0-10.1c0,0,0,0,0-0.1
		c-0.1,0-0.2,0-0.4,0c-1.4,0-2.3,0-3.7,0c-0.3,0-0.4,0.2-0.6,0.4c-1.4,1.6-1.4,1.6-4,3.6c-1.5,1.1-4.5,2.9-6.3,3.3
		c-0.2,0.1-0.2,0.5-0.2,0.8c0,1.4,0,1.9,0,3.3c0,1.4-0.3,2.7-0.8,3.9c-0.6,1.6-1.8,2.6-3.3,3.2C25.6,58.5,25,58.7,24.5,58.8z
		 M39.9,40.1c0.1-0.1,0.1-0.1,0.1-0.1c0,0-0.2,0-0.2,0h-9.4c0,2,0,3.3,0,5.4c0,0.1,0,0.5,0,0.6c0.1,0.1,0.6,0,0.6,0
		c1.6-0.5,2.1-0.8,3.7-1.7c1.3-0.8,2.1-1.3,3.3-2.2C38.7,41.2,39.4,40.6,39.9,40.1z"/>
	<path class="st1" d="M50.2,44.9c-0.1,0-0.1-0.1-0.1-0.1v-0.3c0-0.1,0-0.1,0.1-0.1c0.2,0,0.4-0.1,0.5-0.1c0.4-0.1,0.7-0.1,1.1-0.3
		c0.8-0.4,1.3-1,1.3-2c0,0,0-0.1,0-0.1c0,0,0,0,0,0l0-23.3c0,0,0,0,0,0c-0.1,0-0.1,0-0.2,0c-0.7,0-1.4,0-2.1,0c-0.8,0-1.6,0-2.5,0
		c-1.3,0-2.3,0-3.2,0c-1.5,0-2.5,0.3-3.5,0.9c-1.6,1.1-2.2,3.1-1.5,4.9c0.1,0.1,0.1,0.2,0.2,0.4l0.1,0.2c0,0.1,0,0.1,0,0.1l-0.3,0.2
		c0,0,0,0-0.1,0c0,0-0.1,0-0.1,0c-0.9-1-1.4-2.2-1.3-3.5c0.1-1.3,0.8-2.4,1.8-3.1c1.3-0.9,2.9-1.4,4.7-1.4l0,0c1.8,0,3.7,0,6.2,0
		c1.1,0,2.2,0,3.3,0c1.1,0,2.2,0,3.3,0c0.9,0,1.7,0,2.6,0h0c1.8,0,3.5-0.2,5-0.6c0,0,0.1,0,0.1,0c0,0,0,0,0.1,0c0,0,0,0,0,0
		c0,0,0.1,0,0.1,0c0,0,0,0.1,0,0.1v4.9c0,0.1,0,0.1-0.1,0.1c-0.1,0-0.1,0-0.2,0c-0.1,0-0.2,0-0.2-0.1c-0.1-0.1-0.1-0.3-0.1-0.4
		c0-0.5,0-1-0.3-1.5c-0.5-0.8-1.1-1.1-1.9-1.1c-0.9,0-1.8,0-2.9,0c-0.8,0-1.6,0-2.3,0c-0.6,0-1.3,0-1.9,0c0,0,0,0-0.1,0V19
		c0,2,0,4.1,0,6.1c0,5.4,0,11,0,16.6c0,0.8,0.2,1.5,0.7,2c0.4,0.5,1.1,0.7,1.8,0.7c0,0,0.1,0,0.1,0c0,0,0.1,0,0.1,0c0,0,0.1,0,0.1,0
		c0,0,0.1,0,0.1,0c0.1,0,0.1,0.1,0.1,0.1v0.4c0,0.1-0.1,0.1-0.1,0.1H50.2z"/>
	<path class="st1" d="M65.8,16.6c0,1.6,0,3.3,0,4.9c-0.3,0.1-0.4-0.1-0.4-0.3c0-0.5,0-1.1-0.3-1.5c-0.5-0.7-1.1-1.2-2-1.2
		c-2.4,0-4.8,0-7.1,0c0,0-0.1,0-0.2,0c0,0.2,0,0.3,0,0.5c0,7.6,0,15.1,0,22.7c0,1.9,1.3,2.8,2.7,2.8c0.1,0,0.2,0,0.3,0
		c0,0.1,0,0.3,0,0.4c-2.9,0-5.7,0-8.6,0c0-0.1,0-0.2,0-0.3c0.6-0.1,1.1-0.2,1.6-0.4c0.9-0.4,1.3-1.2,1.4-2.1c0,0,0-0.1,0-0.1
		c0-7.7,0-15.4,0-23c0-0.1,0-0.2,0-0.3c-0.1,0-0.2,0-0.3,0c-2.6,0-5.2,0-7.7,0c-1.2,0-2.4,0.2-3.5,0.9c-1.7,1.1-2.3,3.1-1.5,5
		c0.1,0.2,0.2,0.4,0.3,0.6c-0.1,0.1-0.2,0.1-0.3,0.2c-2-2.1-1.5-5.1,0.5-6.5c1.4-1,3-1.4,4.7-1.4c5.1,0,10.3,0,15.4,0
		c1.7,0,3.4-0.2,5-0.6C65.7,16.6,65.8,16.6,65.8,16.6z"/>
</g>
<g>
	<path class="st1" d="M31.1,70.2C31.1,70.2,31.1,70.2,31.1,70.2c0,0.1,0,0.1,0,0.1c0,0,0,0-0.1,0c-0.3,0.1-0.9,0.3-1.7,0.5
		c-0.1,0.3-0.2,0.8-0.3,1.4c-0.1,0.5-0.2,0.8-0.2,1.1c0,0.2-0.1,0.5-0.1,0.8c-0.1,0.3-0.1,0.5-0.1,0.6c0,0.1-0.1,0.1-0.1,0.1
		c0,0,0,0,0,0c0,0-0.1,0-0.1-0.1c0,0,0-0.1,0-0.1c0-0.3,0.2-1.1,0.5-2.4c0.1-0.6,0.2-1,0.3-1.3c0,0,0,0,0,0c0,0,0,0,0,0
		c-1.2,0.4-2.2,0.7-2.8,0.9c-0.5,2.5-0.8,4.1-0.9,4.8c0,0,0,0,0.1,0.1c0,0,0,0.1,0,0.1c0,0.1,0,0.1-0.1,0.1c0,0,0,0.1-0.1,0.1
		c0,0-0.1,0-0.1,0c0,0,0,0,0,0c-0.1,0-0.1-0.1-0.1-0.1c0-0.1,0-0.2,0-0.3c0-0.2,0.1-0.5,0.1-0.9c0.1-0.7,0.3-1.6,0.5-2.8
		c0.1-0.3,0.1-0.6,0.2-1c-0.4,0.1-0.7,0.2-1.1,0.3c-1.2,0.4-2,0.7-2.2,0.9c0,0,0.1,0.1,0.1,0.1c0,0.1-0.1,0.1-0.1,0.1c0,0,0,0,0,0
		c-0.1,0-0.2-0.1-0.2-0.2c0-0.1,0-0.1,0.1-0.2c0.1-0.1,0.3-0.2,0.6-0.3c0.4-0.2,0.9-0.4,1.6-0.6c0.4-0.1,0.8-0.3,1.3-0.4
		c0.2-1.1,0.5-2.4,0.8-3.8l0-0.1c0-0.2,0.1-0.3,0.1-0.4c0-0.1,0-0.2,0-0.2c0,0,0,0,0,0c0,0,0,0,0,0c0,0-0.1,0-0.1,0.1
		c-0.1,0-0.1,0.1-0.2,0.1c-0.2,0.1-0.3,0.3-0.5,0.5c-0.2,0.2-0.3,0.5-0.5,0.7c-0.1,0.2-0.2,0.3-0.2,0.5c-0.1,0.2-0.1,0.3-0.1,0.4
		c0,0.1,0,0.2,0,0.3c0,0.1,0.2,0.2,0.4,0.2c0,0,0.1,0,0.1,0c0,0,0,0.1,0,0.1c0,0,0,0.1,0,0.1c0,0-0.1,0-0.1,0
		c-0.3,0-0.6-0.1-0.6-0.3c-0.1-0.2-0.1-0.4,0-0.6c0.1-0.3,0.2-0.5,0.3-0.8c0.2-0.3,0.3-0.5,0.5-0.8c0.2-0.2,0.4-0.4,0.5-0.6
		c0.3-0.2,0.5-0.3,0.6-0.2c0.2,0.1,0.2,0.4,0.1,0.9l0,0.1c-0.3,1.4-0.5,2.6-0.8,3.7c0.6-0.2,1.5-0.5,2.7-0.8c0,0,0,0,0,0
		c0,0,0,0,0.1,0c0,0,0,0,0,0c0.5-2.4,0.8-3.9,0.9-4.5c0,0,0-0.1,0.1-0.1c0,0,0.1,0,0.1,0c0,0,0.1,0,0.1,0.1c0,0,0,0.1,0,0.1
		c-0.1,0.6-0.4,2-0.9,4.3c0.7-0.2,1.3-0.4,1.5-0.5C31,70.1,31,70.1,31.1,70.2C31.1,70.1,31.1,70.2,31.1,70.2z"/>
	<path class="st1" d="M33.7,71.6c-0.5,1-0.9,1.5-1.3,1.5c0,0,0,0-0.1,0c-0.3-0.1-0.5-0.5-0.6-1.2c-0.2,0.3-0.4,0.5-0.6,0.7
		c-0.2,0.2-0.3,0.2-0.4,0.2c-0.1,0-0.2-0.2-0.2-0.4c0-0.2,0-0.4,0.1-0.6c0.1-0.2,0.2-0.4,0.3-0.7c0.1-0.2,0.3-0.3,0.5-0.4
		c0.2-0.1,0.5,0,0.7,0.2c0,0,0,0.1,0,0.1c0,0,0,0.1,0,0.1c0,0-0.1,0-0.1,0c0,0-0.1,0-0.1,0c-0.2-0.2-0.3-0.2-0.5-0.1
		c-0.2,0.1-0.3,0.4-0.5,0.7c-0.1,0.3-0.2,0.6-0.1,0.7c0,0,0.1-0.1,0.1-0.1c0.2-0.2,0.4-0.5,0.7-0.8c0.1-0.1,0.1-0.1,0.1-0.2
		c0,0,0.1-0.1,0.1,0c0.1,0,0.1,0.1,0.1,0.1c0,0.2,0,0.4,0.1,0.6c0,0.2,0.1,0.3,0.1,0.4c0,0.1,0.1,0.2,0.1,0.2c0,0.1,0.1,0.1,0.1,0.1
		c0,0,0,0,0.1,0c0.1,0,0.1,0,0.2-0.1c0.1-0.1,0.2-0.2,0.4-0.4c0.2-0.2,0.3-0.5,0.5-0.8c0,0,0-0.1,0.1-0.1c0,0,0.1,0,0.1,0
		C33.7,71.4,33.7,71.4,33.7,71.6C33.8,71.5,33.8,71.5,33.7,71.6z"/>
	<path class="st1" d="M36.1,71.4c0,0,0.1,0,0.1,0c0,0,0.1,0,0.1,0.1c0,0,0,0.1,0,0.1c-0.2,0.3-0.3,0.5-0.4,0.6
		c-0.1,0.2-0.2,0.3-0.3,0.4c-0.1,0.1-0.2,0.1-0.3,0.1c-0.2,0-0.4-0.3-0.5-0.7c-0.1-0.3-0.2-0.5-0.2-0.5c0,0,0,0-0.1,0
		c0,0-0.1,0.1-0.1,0.1c-0.1,0.1-0.1,0.2-0.2,0.3c-0.1,0.1-0.2,0.3-0.3,0.5c-0.1,0.2-0.2,0.5-0.3,0.8c0,0.1-0.1,0.1-0.1,0.1
		c0,0,0,0,0,0c-0.1,0-0.1-0.1-0.1-0.1c0-0.4,0.2-1.1,0.5-2.1c0-0.1,0.1-0.2,0.1-0.2c0,0,0-0.1,0.1-0.1c0,0,0.1,0,0.1,0
		c0,0,0.1,0,0.1,0.1c0,0,0,0.1,0,0.1c0,0,0,0.1-0.1,0.2c-0.1,0.3-0.2,0.6-0.2,0.8c0.1-0.3,0.3-0.5,0.4-0.6c0.1-0.1,0.2-0.2,0.3-0.1
		c0.1,0,0.2,0.1,0.3,0.2c0.1,0.1,0.1,0.3,0.2,0.5c0.1,0.3,0.2,0.5,0.3,0.5c0.1,0,0.1,0,0.2-0.1c0.1-0.1,0.2-0.2,0.3-0.3
		c0.1-0.1,0.2-0.2,0.2-0.3C35.9,71.6,35.9,71.5,36.1,71.4C36,71.4,36,71.4,36.1,71.4z"/>
	<path class="st1" d="M41.6,68.9C41.6,68.9,41.6,69,41.6,68.9c0,0.1,0,0.2,0,0.2c-0.1,0-0.1,0-0.2,0c-0.2-0.1-1.7-0.1-4.6,0
		c-0.3,1.2-0.6,2.6-0.9,4c-0.4,1.7-0.6,2.9-0.7,3.6c0,0,0,0,0,0c0,0,0.1,0,0.1,0.1c0,0,0,0.1,0,0.1c0,0.1,0,0.1-0.1,0.2
		c0,0,0,0.1-0.1,0.1c0,0-0.1,0.1-0.1,0.1c0,0,0,0,0,0C35.1,77.1,35,77,35,77c0-0.1,0-0.2,0-0.3c0-0.2,0.1-0.5,0.1-0.8
		c0.1-0.7,0.3-1.6,0.5-2.6c0.3-1.5,0.6-2.8,0.9-4.1c-0.3,0-0.7,0-1.1,0c-0.7,0-1.1,0-1.3,0c0,0-0.1,0-0.1,0c0,0,0-0.1,0-0.1
		c0,0,0,0,0-0.1c0,0,0,0,0,0c0,0,0,0,0.1,0c0.1,0,0.5,0,1.3,0c0.4,0,0.9,0,1.2,0c0.1-0.6,0.3-1.1,0.4-1.5c0,0,0-0.1,0.1-0.1
		c0,0,0.1,0,0.1,0c0,0,0.1,0,0.1,0.1c0,0,0,0.1,0,0.1c-0.1,0.4-0.2,0.9-0.4,1.4c1.4,0,2.4,0,3.1,0c0.7,0,1.1,0,1.3,0
		C41.4,68.8,41.5,68.8,41.6,68.9z"/>
	<path class="st1" d="M38.7,71.3C38.7,71.3,38.7,71.3,38.7,71.3c0.1,0,0.1,0.1,0.2,0.1c0,0,0,0.1,0,0.1c-0.1,0.2-0.3,0.4-0.5,0.6
		c-0.2,0.2-0.4,0.4-0.6,0.6c-0.2,0.2-0.4,0.3-0.6,0.3c-0.1,0-0.1,0-0.1,0c-0.3-0.1-0.3-0.7-0.1-1.6c0,0,0-0.1,0.1-0.1
		c0,0,0.1,0,0.1,0c0,0,0.1,0,0.1,0.1c0,0,0,0.1,0,0.1c-0.1,0.2-0.1,0.4-0.1,0.6c0,0.2,0,0.3,0,0.4c0,0.1,0,0.2,0,0.2
		c0,0.1,0,0.1,0,0.1c0,0,0,0,0,0c0.1,0,0.3-0.1,0.6-0.4C38.1,72.1,38.3,71.7,38.7,71.3C38.6,71.4,38.6,71.3,38.7,71.3z M37.2,70.8
		c-0.1,0-0.2-0.1-0.1-0.2c0-0.1,0.1-0.1,0.2-0.2c0.1,0,0.2,0,0.2,0.1c0,0.1,0,0.2-0.1,0.2C37.3,70.8,37.2,70.8,37.2,70.8z"/>
	<path class="st1" d="M41.1,71.4c0,0,0.1,0,0.1,0c0,0,0.1,0,0.1,0.1c0,0,0,0.1,0,0.1c-0.2,0.3-0.3,0.5-0.4,0.6
		c-0.1,0.2-0.2,0.3-0.3,0.4c-0.1,0.1-0.2,0.1-0.3,0.1c-0.2,0-0.4-0.3-0.5-0.7c-0.1-0.3-0.2-0.5-0.2-0.5c0,0,0,0-0.1,0
		c0,0-0.1,0.1-0.1,0.1c-0.1,0.1-0.1,0.2-0.2,0.3c-0.1,0.1-0.2,0.3-0.3,0.5c-0.1,0.2-0.2,0.5-0.3,0.8c0,0.1-0.1,0.1-0.1,0.1
		c0,0,0,0,0,0c-0.1,0-0.1-0.1-0.1-0.1c0-0.4,0.2-1.1,0.5-2.1c0-0.1,0.1-0.2,0.1-0.2c0,0,0-0.1,0.1-0.1c0,0,0.1,0,0.1,0
		c0,0,0.1,0,0.1,0.1c0,0,0,0.1,0,0.1c0,0,0,0.1-0.1,0.2c-0.1,0.3-0.2,0.6-0.2,0.8c0.1-0.3,0.3-0.5,0.4-0.6c0.1-0.1,0.2-0.2,0.3-0.1
		c0.1,0,0.2,0.1,0.3,0.2c0.1,0.1,0.1,0.3,0.2,0.5c0.1,0.3,0.2,0.5,0.3,0.5c0.1,0,0.1,0,0.2-0.1c0.1-0.1,0.2-0.2,0.3-0.3
		c0.1-0.1,0.2-0.2,0.2-0.3C40.9,71.6,41,71.5,41.1,71.4C41,71.4,41.1,71.4,41.1,71.4z"/>
	<path class="st1" d="M49.5,71.3C49.5,71.3,49.6,71.3,49.5,71.3c0.1,0.1,0.1,0.1,0.1,0.1c0,0,0,0.1-0.1,0.1c-0.7,0.5-1.3,1-1.9,1.4
		c0.1,0.2,0.1,0.4,0,0.6c-0.1,0.4-0.2,0.7-0.4,1.1c-0.2,0.3-0.4,0.7-0.7,0.9c-0.2,0.3-0.5,0.5-0.8,0.7c-0.3,0.2-0.5,0.4-0.8,0.5
		c-0.2,0.1-0.5,0.2-0.6,0.2c0,0-0.1,0-0.1,0c-0.2,0-0.4-0.1-0.4-0.2c-0.1-0.3,0.1-0.8,0.7-1.4c0.6-0.6,1.5-1.4,2.7-2.4
		c-0.1-0.2-0.4-0.5-0.8-0.7c-0.4-0.2-1-0.5-1.9-0.8c-0.2-0.1-0.4-0.2-0.5-0.2c-0.3-0.1-0.6-0.3-0.7-0.5c-0.1-0.2-0.1-0.5,0-0.8
		c0.1-0.4,0.4-0.8,0.9-1.2c0.5-0.4,0.9-0.8,1.5-1.2c0.5-0.3,1.1-0.6,1.6-0.8c0.5-0.2,1-0.3,1.3-0.2c0.1,0,0.1,0,0.2,0.1
		c0.1,0,0.1,0.1,0.2,0.1c0.1,0.1,0.1,0.1,0.1,0.2c0,0.1,0,0.2,0,0.4c0,0,0,0,0,0.1c0,0,0,0-0.1,0c0,0,0,0-0.1,0c0,0-0.1,0-0.1-0.1
		c0,0,0-0.1,0-0.1c0-0.2,0-0.3,0-0.4c-0.1-0.1-0.1-0.1-0.2-0.1c-0.2,0-0.4,0-0.7,0c-0.3,0.1-0.6,0.2-1,0.3c-0.3,0.2-0.7,0.4-1.1,0.6
		c-0.6,0.4-1.1,0.7-1.5,1.2c-0.4,0.4-0.6,0.8-0.7,1.1c-0.1,0.5,0,0.8,0.6,1c0.1,0,0.3,0.1,0.5,0.2c0.3,0.1,0.5,0.2,0.7,0.3
		c0.1,0.1,0.3,0.1,0.6,0.2c0.2,0.1,0.4,0.2,0.5,0.3c0.1,0.1,0.3,0.2,0.4,0.3c0.1,0.1,0.3,0.2,0.4,0.3c0.1,0.1,0.2,0.2,0.2,0.3
		C48.1,72.3,48.7,71.8,49.5,71.3C49.4,71.3,49.5,71.3,49.5,71.3z M47.4,73.5c0-0.1,0-0.3,0-0.4c-1,0.8-1.7,1.4-2.3,2
		c-0.3,0.3-0.6,0.6-0.8,0.9c-0.2,0.3-0.2,0.4-0.2,0.5c0,0.1,0.1,0.1,0.2,0.1c0.2,0,0.3-0.1,0.6-0.2c0.2-0.1,0.5-0.2,0.7-0.4
		c0.3-0.2,0.5-0.4,0.7-0.6c0.2-0.2,0.4-0.5,0.6-0.9C47.2,74.2,47.3,73.8,47.4,73.5z"/>
	<path class="st1" d="M52.4,71.3C52.4,71.3,52.4,71.3,52.4,71.3c0.1,0,0.1,0.1,0.2,0.1c0,0,0,0.1,0,0.1c-0.1,0.2-0.3,0.5-0.4,0.6
		c-0.1,0.2-0.3,0.3-0.3,0.5c-0.1,0.1-0.2,0.2-0.3,0.3c-0.1,0.1-0.2,0.1-0.2,0.2c-0.1,0-0.1,0.1-0.2,0.1c-0.1,0-0.1,0-0.1,0
		c0,0,0,0-0.1,0c-0.2-0.1-0.3-0.3-0.4-0.7c0-0.1,0-0.2,0-0.2c0-0.1,0-0.1,0-0.1c0,0,0,0,0,0h0c0,0-0.1,0-0.1,0.1
		c-0.1,0.1-0.1,0.1-0.2,0.3c-0.1,0.1-0.2,0.3-0.3,0.5c-0.1,0.2-0.2,0.4-0.3,0.7c-0.1,0.3-0.2,0.6-0.3,0.9c0,0.1-0.1,0.1-0.1,0.1
		c0,0,0,0,0,0c0,0,0,0-0.1,0c0,0,0,0,0-0.1c0,0,0,0,0-0.1c0-0.2,0.1-0.8,0.4-1.8c0.2-1,0.4-1.8,0.6-2.4c0.1-0.6,0.3-1.1,0.3-1.4
		c0.2-0.6,0.3-1.2,0.5-1.6c0.2-0.4,0.4-0.7,0.5-0.7c0.1,0,0.1,0,0.2,0.1c0.1,0.1,0,0.5-0.2,1c-0.2,0.6-0.5,1.3-1,2.1
		c-0.3,1.4-0.6,2.6-0.8,3.4c0.2-0.4,0.4-0.8,0.6-1c0.2-0.2,0.4-0.4,0.5-0.3c0.2,0,0.3,0.2,0.3,0.6c0,0.3,0.1,0.5,0.2,0.5
		c0,0,0,0,0.1,0c0,0,0.1,0,0.2-0.1c0.1,0,0.2-0.1,0.3-0.2c0.1-0.1,0.2-0.2,0.4-0.5C51.9,71.9,52.1,71.7,52.4,71.3
		C52.3,71.4,52.3,71.3,52.4,71.3z M51.1,66.8c-0.2,0.4-0.5,0.9-0.7,1.8C50.8,67.8,51,67.2,51.1,66.8z"/>
	<path class="st1" d="M54.6,71.6c-0.2,0.2-0.4,0.4-0.7,0.6c-0.3,0.1-0.5,0.2-0.7,0.1c-0.1,0.2-0.2,0.3-0.3,0.4
		c-0.1,0.1-0.2,0.1-0.4,0.1h0c-0.1,0-0.2,0-0.3-0.1c-0.1-0.1-0.2-0.2-0.2-0.3c-0.1-0.2,0-0.4,0-0.6c0.1-0.2,0.2-0.3,0.3-0.4
		c0,0,0.1,0,0.1,0c0-0.1,0.1-0.2,0.2-0.2c0.1-0.1,0.2-0.1,0.2-0.1c0,0,0.1,0,0.1,0.1c0,0,0.1,0.1,0.1,0.1c0,0.1,0.1,0.2,0.1,0.3
		c0,0.1,0,0.3,0,0.5c0,0,0,0.1,0,0.1c0.2,0,0.4,0,0.6-0.1c0.2-0.1,0.4-0.3,0.5-0.5c0,0,0.1,0,0.1,0c0,0,0.1,0,0.1,0
		C54.6,71.4,54.7,71.5,54.6,71.6C54.7,71.5,54.7,71.6,54.6,71.6z M52.6,72.5c0.1,0,0.1,0,0.2-0.1c0.1-0.1,0.1-0.1,0.2-0.2
		c-0.3-0.2-0.4-0.4-0.5-0.7c-0.1,0.1-0.2,0.2-0.2,0.3c0,0.1,0,0.3,0,0.4C52.4,72.4,52.5,72.5,52.6,72.5z M53.1,71.9
		c0-0.1,0-0.2,0-0.3c0-0.1,0-0.1,0-0.2c0,0,0-0.1,0-0.1c0,0,0-0.1,0-0.1c0,0,0,0,0,0h0c0,0,0,0-0.1,0c0,0,0,0.1-0.1,0.1
		c0,0.1,0,0.2,0,0.3C52.9,71.8,52.9,71.8,53.1,71.9C53.1,71.9,53.1,71.9,53.1,71.9z"/>
	<path class="st1" d="M55.8,70.4c0.1,0,0.2,0.1,0.3,0.3c0,0.2,0,0.4,0,0.6c-0.1,0.4-0.4,0.8-0.8,1.1c-0.2,0.1-0.4,0.3-0.6,0.4
		c-0.2,0.7-0.3,1.5-0.5,2.5c-0.2,1-0.3,1.8-0.4,2.3c0,0.1-0.1,0.1-0.1,0.1c0,0,0,0,0,0c0,0,0,0-0.1,0c0,0,0,0,0-0.1c0,0,0,0,0-0.1
		c0.1-0.8,0.4-2.3,0.8-4.6c-0.1,0-0.1,0-0.2,0c0,0-0.1,0-0.1,0c0,0-0.1,0-0.1-0.1c0,0,0-0.1,0-0.1c0,0,0-0.1,0.1-0.1
		c0.1,0,0.2-0.1,0.3-0.1c0-0.2,0.1-0.4,0.1-0.7c0.2-1.3,0.4-2,0.4-2.1c0,0,0-0.1,0-0.1c0,0,0.1,0,0.1,0c0,0,0.1,0,0.1,0
		c0,0,0,0.1,0,0.1c0,0-0.1,0.6-0.3,1.8c0.1-0.2,0.1-0.4,0.2-0.5c0.1-0.2,0.1-0.3,0.2-0.4c0.1-0.1,0.1-0.2,0.2-0.3
		c0.1-0.1,0.1-0.1,0.2-0.2c0,0,0.1-0.1,0.1-0.1C55.6,70.4,55.6,70.4,55.8,70.4C55.7,70.4,55.7,70.4,55.8,70.4z M55.8,71.2
		c0-0.2,0.1-0.3,0-0.4c0-0.1-0.1-0.2-0.1-0.2c0,0,0,0,0,0c0,0-0.1,0-0.1,0c0,0-0.1,0.1-0.1,0.1c-0.1,0.1-0.1,0.1-0.2,0.2
		c-0.1,0.1-0.1,0.2-0.2,0.4c-0.1,0.2-0.1,0.3-0.2,0.5c0,0.1-0.1,0.3-0.2,0.6c0.3-0.2,0.5-0.3,0.7-0.5C55.6,71.7,55.7,71.5,55.8,71.2
		z"/>
</g>
</svg>
